<svg width="32" height="32" viewBox="0 0 32 32" fill="none" xmlns="http://www.w3.org/2000/svg">
<path d="M27.75 16C27.75 16.1989 27.671 16.3897 27.5303 16.5304C27.3897 16.671 27.1989 16.75 27 16.75H6.81126L14.53 24.47C14.6037 24.5387 14.6628 24.6215 14.7038 24.7135C14.7448 24.8055 14.7668 24.9048 14.7686 25.0055C14.7704 25.1062 14.7519 25.2062 14.7141 25.2996C14.6764 25.393 14.6203 25.4778 14.549 25.5491C14.4778 25.6203 14.393 25.6764 14.2996 25.7142C14.2062 25.7519 14.1062 25.7704 14.0055 25.7686C13.9048 25.7668 13.8055 25.7448 13.7135 25.7038C13.6215 25.6628 13.5387 25.6037 13.47 25.53L4.47001 16.53C4.32956 16.3894 4.25067 16.1988 4.25067 16C4.25067 15.8013 4.32956 15.6107 4.47001 15.47L13.47 6.47003C13.6122 6.33755 13.8002 6.26543 13.9945 6.26885C14.1888 6.27228 14.3742 6.35099 14.5116 6.48841C14.649 6.62582 14.7278 6.81121 14.7312 7.00551C14.7346 7.19981 14.6625 7.38785 14.53 7.53003L6.81126 15.25H27C27.1989 15.25 27.3897 15.329 27.5303 15.4697C27.671 15.6104 27.75 15.8011 27.75 16Z" fill="#343330"/>
</svg>
