<svg width="24" height="24" viewBox="0 0 24 24" fill="none" xmlns="http://www.w3.org/2000/svg">
<path d="M12.0865 22C11.9627 22 11.8388 21.9716 11.7271 21.9137L8.12599 20.0496C7.10415 19.5201 6.30481 18.9259 5.68063 18.2336C4.31449 16.7195 3.5544 14.776 3.54232 12.7599L3.50004 6.12426C3.495 5.35842 3.98931 4.67103 4.72826 4.41215L11.3405 2.10679C11.7331 1.96656 12.1711 1.9646 12.5707 2.09992L19.2081 4.32684C19.9511 4.57493 20.4535 5.25742 20.4575 6.02228L20.4998 12.6628C20.5129 14.676 19.779 16.6274 18.434 18.1581C17.8168 18.8602 17.0245 19.4632 16.0128 20.0025L12.4439 21.9088C12.3331 21.9686 12.2103 21.999 12.0865 22" fill="#2463F5"/>
<path d="M13.444 7.276L13.204 13.024H11.464L11.224 7.276H13.444ZM12.364 16.096C12.004 16.096 11.708 15.992 11.476 15.784C11.252 15.568 11.14 15.304 11.14 14.992C11.14 14.672 11.252 14.404 11.476 14.188C11.708 13.972 12.004 13.864 12.364 13.864C12.716 13.864 13.004 13.972 13.228 14.188C13.46 14.404 13.576 14.672 13.576 14.992C13.576 15.304 13.46 15.568 13.228 15.784C13.004 15.992 12.716 16.096 12.364 16.096Z" fill="white"/>
</svg>
