<svg width="32" height="32" viewBox="0 0 32 32" fill="none" xmlns="http://www.w3.org/2000/svg">
<path d="M27.53 16.53L18.53 25.53C18.3878 25.6625 18.1998 25.7346 18.0055 25.7312C17.8112 25.7278 17.6258 25.6491 17.4884 25.5117C17.351 25.3742 17.2723 25.1889 17.2688 24.9946C17.2654 24.8003 17.3375 24.6122 17.47 24.47L25.1887 16.75H5C4.80109 16.75 4.61032 16.671 4.46967 16.5304C4.32902 16.3897 4.25 16.1989 4.25 16C4.25 15.8011 4.32902 15.6104 4.46967 15.4697C4.61032 15.329 4.80109 15.25 5 15.25H25.1887L17.47 7.53003C17.3375 7.38785 17.2654 7.19981 17.2688 7.00551C17.2723 6.81121 17.351 6.62582 17.4884 6.48841C17.6258 6.35099 17.8112 6.27228 18.0055 6.26885C18.1998 6.26543 18.3878 6.33755 18.53 6.47003L27.53 15.47C27.6705 15.6107 27.7493 15.8013 27.7493 16C27.7493 16.1988 27.6705 16.3894 27.53 16.53Z" fill="#343330"/>
</svg>
