<svg width="32" height="32" viewBox="0 0 32 32" fill="none" xmlns="http://www.w3.org/2000/svg">
<path d="M22.53 16.53L12.53 26.53C12.3878 26.6625 12.1998 26.7346 12.0055 26.7311C11.8112 26.7277 11.6258 26.649 11.4884 26.5116C11.351 26.3742 11.2723 26.1888 11.2688 25.9945C11.2654 25.8002 11.3375 25.6121 11.47 25.47L20.9387 16L11.47 6.52997C11.3375 6.38779 11.2654 6.19975 11.2688 6.00545C11.2723 5.81114 11.351 5.62576 11.4884 5.48835C11.6258 5.35093 11.8112 5.27222 12.0055 5.26879C12.1998 5.26537 12.3878 5.33749 12.53 5.46997L22.53 15.47C22.6705 15.6106 22.7493 15.8012 22.7493 16C22.7493 16.1987 22.6705 16.3893 22.53 16.53Z" fill="#343330"/>
</svg>
