<svg width="32" height="32" viewBox="0 0 32 32" fill="none" xmlns="http://www.w3.org/2000/svg">
<path d="M25.5301 24.47C25.6038 24.5387 25.6629 24.6215 25.7039 24.7135C25.7449 24.8055 25.7669 24.9048 25.7687 25.0055C25.7705 25.1062 25.7519 25.2062 25.7142 25.2996C25.6765 25.393 25.6203 25.4778 25.5491 25.5491C25.4779 25.6203 25.3931 25.6764 25.2997 25.7142C25.2063 25.7519 25.1063 25.7704 25.0056 25.7686C24.9049 25.7668 24.8056 25.7448 24.7136 25.7038C24.6216 25.6628 24.5388 25.6037 24.4701 25.53L16.0001 17.0613L7.53009 25.53C7.38792 25.6625 7.19987 25.7346 7.00557 25.7312C6.81127 25.7278 6.62588 25.6491 6.48847 25.5117C6.35106 25.3742 6.27234 25.1889 6.26892 24.9946C6.26549 24.8003 6.33761 24.6122 6.47009 24.47L14.9388 16L6.47009 7.53003C6.33761 7.38785 6.26549 7.19981 6.26892 7.00551C6.27234 6.81121 6.35106 6.62582 6.48847 6.48841C6.62588 6.35099 6.81127 6.27228 7.00557 6.26885C7.19987 6.26543 7.38792 6.33755 7.53009 6.47003L16.0001 14.9388L24.4701 6.47003C24.6123 6.33755 24.8003 6.26543 24.9946 6.26885C25.1889 6.27228 25.3743 6.35099 25.5117 6.48841C25.6491 6.62582 25.7278 6.81121 25.7313 7.00551C25.7347 7.19981 25.6626 7.38785 25.5301 7.53003L17.0613 16L25.5301 24.47Z" fill="#343330"/>
</svg>
