<svg width="32" height="32" viewBox="0 0 32 32" fill="none" xmlns="http://www.w3.org/2000/svg">
<path d="M22.75 16C22.7573 20.0079 21.9766 23.9782 20.4525 27.685C20.396 27.8226 20.2998 27.9402 20.1763 28.023C20.0528 28.1058 19.9074 28.15 19.7587 28.15C19.661 28.1496 19.5643 28.1305 19.4737 28.0938C19.3825 28.0563 19.2995 28.0013 19.2295 27.9318C19.1596 27.8622 19.104 27.7796 19.0661 27.6885C19.0281 27.5975 19.0085 27.4999 19.0083 27.4013C19.0081 27.3026 19.0274 27.2049 19.065 27.1138C20.5147 23.5882 21.2571 19.812 21.25 16C21.25 15.8011 21.329 15.6103 21.4697 15.4697C21.6103 15.329 21.8011 15.25 22 15.25C22.1989 15.25 22.3897 15.329 22.5303 15.4697C22.671 15.6103 22.75 15.8011 22.75 16ZM16 10.75C16.7386 10.7506 17.4689 10.9067 18.1432 11.2082C18.8176 11.5097 19.4208 11.9499 19.9137 12.5C19.9786 12.576 20.0581 12.6383 20.1474 12.6831C20.2367 12.728 20.3341 12.7545 20.4338 12.7612C20.5335 12.7679 20.6336 12.7546 20.7281 12.722C20.8226 12.6895 20.9097 12.6384 20.9841 12.5718C21.0586 12.5051 21.119 12.4243 21.1618 12.3339C21.2046 12.2436 21.2289 12.1457 21.2333 12.0458C21.2377 11.946 21.2221 11.8462 21.1874 11.7525C21.1527 11.6588 21.0996 11.5729 21.0312 11.5C20.1199 10.481 18.9206 9.76281 17.5921 9.44036C16.2636 9.11791 14.8685 9.20644 13.5914 9.69423C12.3144 10.182 11.2155 11.0461 10.4403 12.1721C9.66503 13.2981 9.24996 14.6329 9.24998 16C9.25093 18.9215 8.5103 21.7954 7.09748 24.3525C7.0468 24.4388 7.01389 24.5343 7.00069 24.6335C6.98749 24.7326 6.99427 24.8335 7.02062 24.93C7.04697 25.0265 7.09237 25.1168 7.15414 25.1955C7.2159 25.2742 7.29279 25.3397 7.38028 25.3883C7.46776 25.4368 7.56407 25.4673 7.66354 25.4781C7.76301 25.4888 7.86362 25.4796 7.95946 25.4509C8.05529 25.4221 8.14441 25.3745 8.22157 25.3108C8.29873 25.2471 8.36236 25.1687 8.40873 25.08C9.94524 22.3003 10.7508 19.1761 10.75 16C10.75 14.6076 11.3031 13.2723 12.2877 12.2877C13.2722 11.3031 14.6076 10.75 16 10.75ZM16 3.25001C14.5523 3.24804 13.1149 3.49367 11.75 3.97626C11.6549 4.00732 11.567 4.05709 11.4915 4.12262C11.4159 4.18816 11.3542 4.26815 11.3101 4.35787C11.2659 4.4476 11.2401 4.54526 11.2342 4.6451C11.2283 4.74495 11.2425 4.84495 11.2758 4.93925C11.3092 5.03354 11.3611 5.12021 11.4284 5.19415C11.4957 5.2681 11.5772 5.32783 11.668 5.36983C11.7587 5.41184 11.857 5.43526 11.9569 5.43872C12.0569 5.44219 12.1565 5.42563 12.25 5.39001C13.9471 4.79208 15.7628 4.60964 17.545 4.85796C19.3272 5.10628 21.0238 5.77814 22.4929 6.81723C23.9619 7.85632 25.1605 9.23238 25.9882 10.8301C26.8159 12.4278 27.2486 14.2006 27.25 16C27.2506 18.6357 26.9571 21.2632 26.375 23.8338C26.3514 23.9304 26.3473 24.0308 26.363 24.129C26.3786 24.2272 26.4135 24.3214 26.4659 24.406C26.5182 24.4905 26.5869 24.5639 26.6678 24.6217C26.7488 24.6795 26.8404 24.7206 26.9374 24.7427C27.0344 24.7647 27.1348 24.7672 27.2328 24.7501C27.3308 24.733 27.4244 24.6966 27.5081 24.6429C27.5919 24.5893 27.6641 24.5195 27.7207 24.4377C27.7772 24.3558 27.8169 24.2636 27.8375 24.1663C28.4445 21.4866 28.7506 18.7476 28.75 16C28.746 12.6197 27.4014 9.37901 25.0112 6.98879C22.621 4.59856 19.3803 3.25398 16 3.25001ZM8.49998 7.61501C8.63552 7.47932 8.71392 7.29686 8.71907 7.10514C8.72423 6.91342 8.65574 6.72701 8.52769 6.58424C8.39963 6.44146 8.22175 6.35316 8.0306 6.3375C7.83946 6.32183 7.64957 6.37999 7.49998 6.50001C6.16448 7.69652 5.09585 9.16079 4.36361 10.7976C3.63137 12.4343 3.25193 14.2069 3.24998 16C3.25403 17.6179 2.90642 19.2173 2.23123 20.6875C2.18591 20.7775 2.1592 20.8758 2.15269 20.9763C2.14618 21.0769 2.16001 21.1778 2.19335 21.2729C2.22669 21.368 2.27886 21.4554 2.34673 21.5299C2.41461 21.6044 2.49681 21.6645 2.58842 21.7065C2.68002 21.7485 2.77916 21.7716 2.8799 21.7745C2.98065 21.7773 3.08093 21.7598 3.17477 21.7231C3.26861 21.6863 3.35407 21.631 3.42605 21.5604C3.49804 21.4899 3.55507 21.4056 3.59373 21.3125C4.35994 19.6465 4.75448 17.8338 4.74998 16C4.7512 14.4174 5.08575 12.8528 5.73187 11.4081C6.37798 9.96338 7.32116 8.67096 8.49998 7.61501ZM14.135 25.32C14.0452 25.2781 13.948 25.2543 13.849 25.2502C13.7499 25.246 13.6511 25.2616 13.5581 25.2958C13.4651 25.3301 13.3798 25.3825 13.3072 25.45C13.2346 25.5174 13.176 25.5986 13.135 25.6888C12.885 26.2188 12.6237 26.7475 12.34 27.26C12.2438 27.4339 12.2206 27.6389 12.2755 27.8299C12.3303 28.0209 12.4587 28.1824 12.6325 28.2788C12.7431 28.3412 12.868 28.3739 12.995 28.3738C13.1289 28.3738 13.2604 28.338 13.3758 28.2701C13.4912 28.2022 13.5863 28.1046 13.6512 27.9875C13.9537 27.4425 14.2387 26.8788 14.4987 26.3138C14.5818 26.1337 14.5902 25.928 14.522 25.7418C14.4538 25.5556 14.3147 25.4039 14.135 25.32ZM16 15.25C15.8011 15.25 15.6103 15.329 15.4697 15.4697C15.329 15.6103 15.25 15.8011 15.25 16C15.2512 17.9606 15.005 19.9135 14.5175 21.8125C14.4929 21.908 14.4873 22.0073 14.5011 22.1049C14.515 22.2025 14.5479 22.2965 14.5981 22.3813C14.6482 22.4662 14.7146 22.5403 14.7934 22.5995C14.8723 22.6587 14.962 22.7018 15.0575 22.7263C15.1187 22.7421 15.1817 22.7501 15.245 22.75C15.4111 22.7497 15.5723 22.6944 15.7035 22.5926C15.8348 22.4908 15.9285 22.3483 15.97 22.1875C16.4888 20.166 16.7509 18.0871 16.75 16C16.75 15.8011 16.671 15.6103 16.5303 15.4697C16.3897 15.329 16.1989 15.25 16 15.25Z" fill="#343330"/>
</svg>
