<svg width="32" height="32" viewBox="0 0 32 32" fill="none" xmlns="http://www.w3.org/2000/svg">
<path d="M26.8938 5.10634C25.3358 3.54709 23.2954 2.56176 21.1055 2.31108C18.9156 2.06039 16.7054 2.55915 14.8353 3.72598C12.9653 4.89282 11.5458 6.65887 10.8084 8.73608C10.071 10.8133 10.0593 13.0791 10.775 15.1638L3.7625 22.1763C3.59967 22.3386 3.47056 22.5315 3.3826 22.7439C3.29464 22.9563 3.24958 23.184 3.25 23.4138V27.0001C3.25 27.4642 3.43438 27.9093 3.76257 28.2375C4.09075 28.5657 4.53587 28.7501 5 28.7501H9C9.19892 28.7501 9.38968 28.6711 9.53033 28.5304C9.67098 28.3898 9.75 28.199 9.75 28.0001V25.7501H12C12.1989 25.7501 12.3897 25.6711 12.5303 25.5304C12.671 25.3898 12.75 25.199 12.75 25.0001V22.7501H15C15.1988 22.7499 15.3895 22.6708 15.53 22.5301L16.8363 21.2251C17.8544 21.5744 18.9236 21.7519 20 21.7501H20.0125C21.9397 21.7474 23.8228 21.1737 25.424 20.1014C27.0253 19.0291 28.2729 17.5063 29.0092 15.7253C29.7455 13.9444 29.9376 11.9852 29.561 10.0952C29.1845 8.20518 28.2563 6.46914 26.8938 5.10634ZM28.25 12.2701C28.11 16.6651 24.4163 20.2451 20.015 20.2501C18.9659 20.2523 17.926 20.0542 16.9513 19.6663C16.8131 19.6062 16.66 19.589 16.512 19.6171C16.3639 19.6452 16.2278 19.7172 16.1213 19.8238L14.6888 21.2501H12C11.8011 21.2501 11.6103 21.3291 11.4697 21.4698C11.329 21.6104 11.25 21.8012 11.25 22.0001V24.2501H9C8.80109 24.2501 8.61033 24.3291 8.46967 24.4698C8.32902 24.6104 8.25 24.8012 8.25 25.0001V27.2501H5C4.9337 27.2501 4.87011 27.2237 4.82323 27.1769C4.77634 27.13 4.75 27.0664 4.75 27.0001V23.4138C4.74995 23.3478 4.77601 23.2845 4.8225 23.2376L12.1763 15.8838C12.2829 15.7773 12.3549 15.6412 12.383 15.4931C12.4111 15.3451 12.3939 15.192 12.3338 15.0538C11.945 14.0793 11.7468 13.0393 11.75 11.9901C11.75 7.58884 15.335 3.89509 19.7288 3.75009C20.8579 3.71232 21.9827 3.90685 23.0336 4.32164C24.0844 4.73643 25.0389 5.36262 25.8378 6.16142C26.6367 6.96021 27.263 7.91458 27.678 8.96536C28.0929 10.0162 28.2876 11.141 28.25 12.2701ZM23.75 9.50009C23.75 9.74731 23.6767 9.98899 23.5393 10.1946C23.402 10.4001 23.2068 10.5603 22.9784 10.6549C22.75 10.7495 22.4986 10.7743 22.2561 10.7261C22.0137 10.6778 21.7909 10.5588 21.6161 10.384C21.4413 10.2092 21.3223 9.98643 21.274 9.74395C21.2258 9.50147 21.2505 9.25014 21.3452 9.02173C21.4398 8.79332 21.6 8.5981 21.8055 8.46075C22.0111 8.3234 22.2528 8.25009 22.5 8.25009C22.8315 8.25009 23.1495 8.38178 23.3839 8.6162C23.6183 8.85062 23.75 9.16857 23.75 9.50009Z" fill="#343330"/>
</svg>
