<svg width="32" height="32" viewBox="0 0 32 32" fill="none" xmlns="http://www.w3.org/2000/svg">
<path d="M28.75 25C28.75 25.1989 28.671 25.3897 28.5303 25.5303C28.3897 25.671 28.1989 25.75 28 25.75C27.8011 25.75 27.6103 25.671 27.4697 25.5303C27.329 25.3897 27.25 25.1989 27.25 25C27.2467 22.0173 26.0604 19.1578 23.9513 17.0487C21.8422 14.9396 18.9827 13.7533 16 13.75H5.81125L10.53 18.47C10.6037 18.5387 10.6628 18.6215 10.7038 18.7135C10.7448 18.8055 10.7668 18.9048 10.7686 19.0055C10.7704 19.1062 10.7518 19.2062 10.7141 19.2996C10.6764 19.393 10.6203 19.4778 10.549 19.549C10.4778 19.6203 10.393 19.6764 10.2996 19.7141C10.2062 19.7518 10.1062 19.7704 10.0055 19.7686C9.90477 19.7668 9.80546 19.7448 9.71346 19.7038C9.62146 19.6628 9.53866 19.6037 9.47 19.53L3.47 13.53C3.32955 13.3894 3.25066 13.1987 3.25066 13C3.25066 12.8012 3.32955 12.6106 3.47 12.47L9.47 6.47C9.61217 6.33752 9.80022 6.2654 9.99452 6.26882C10.1888 6.27225 10.3742 6.35096 10.5116 6.48838C10.649 6.62579 10.7277 6.81118 10.7312 7.00548C10.7346 7.19978 10.6625 7.38782 10.53 7.53L5.81125 12.25H16C19.3803 12.254 22.621 13.5985 25.0112 15.9888C27.4015 18.379 28.746 21.6197 28.75 25Z" fill="#343330"/>
</svg>
